<?xml version="1.0" encoding="iso-8859-1"?>
<!-- Generator: Adobe Illustrator 19.0.0, SVG Export Plug-In . SVG Version: 6.00 Build 0)  -->
<svg xmlns="http://www.w3.org/2000/svg" xmlns:xlink="http://www.w3.org/1999/xlink" version="1.1" id="Capa_1" x="0px" y="0px" viewBox="0 0 512 512" style="enable-background:new 0 0 512 512;" xml:space="preserve" width="512px" height="512px">
<line x1="0" y1="512" x2="512" y2="0" stroke="white" stroke-width="15" />
<g>
	<g>
		<g>
			<path d="M179.2,102.4h17.067c14.132-0.015,25.585-11.468,25.6-25.6V59.733c-0.015-14.132-11.468-25.585-25.6-25.6H179.2     c-14.132,0.015-25.585,11.468-25.6,25.6V76.8C153.615,90.932,165.068,102.385,179.2,102.4z M170.667,59.733     c0.006-4.71,3.823-8.527,8.533-8.533h17.067c4.71,0.006,8.527,3.823,8.533,8.533V76.8c-0.006,4.71-3.823,8.527-8.533,8.533H179.2     c-4.71-0.006-8.527-3.823-8.533-8.533V59.733z" fill="#FFFFFF"/>
			<path d="M315.733,102.4H332.8c14.132-0.015,25.585-11.468,25.6-25.6V59.733c-0.015-14.132-11.468-25.585-25.6-25.6h-17.067     c-14.132,0.015-25.585,11.468-25.6,25.6V76.8C290.149,90.932,301.601,102.385,315.733,102.4z M307.2,59.733     c0.006-4.71,3.823-8.527,8.533-8.533H332.8c4.71,0.006,8.527,3.823,8.533,8.533V76.8c-0.006,4.71-3.823,8.527-8.533,8.533     h-17.067c-4.71-0.006-8.527-3.823-8.533-8.533V59.733z" fill="#FFFFFF"/>
			<path d="M477.867,25.6h-69.478C404.519,10.569,390.988,0.047,375.467,0H136.533c-15.521,0.047-29.052,10.569-32.922,25.6H34.133     C15.291,25.622,0.022,40.891,0,59.733v341.333c0.022,18.842,15.291,34.112,34.133,34.133H204.8v25.6h-8.533     c-23.553,0.028-42.639,19.114-42.667,42.667c0,4.713,3.82,8.533,8.533,8.533h187.733c4.713,0,8.533-3.82,8.533-8.533     c-0.028-23.553-19.114-42.639-42.667-42.667H307.2v-25.6h170.667c18.843-0.02,34.113-15.29,34.133-34.133V59.733     C511.98,40.89,496.71,25.62,477.867,25.6z M409.6,78.012c15.058,3.828,25.599,17.385,25.599,32.922s-10.541,29.093-25.599,32.922     V78.012z M119.467,34.133c0.009-9.422,7.645-17.057,17.067-17.067h238.933c9.422,0.009,17.057,7.645,17.067,17.067v136.533     c-0.009,9.422-7.645,17.057-17.067,17.067H358.4v-42.667c-0.015-14.132-11.468-25.585-25.6-25.6H179.2     c-14.132,0.015-25.585,11.468-25.6,25.6v42.667h-17.067c-9.422-0.009-17.057-7.645-17.067-17.067V34.133z M349.867,290.133     H162.133c-14.132,0.015-25.585,11.468-25.6,25.6v51.2h-17.067v-76.8c0.009-9.422,7.645-17.057,17.067-17.067h238.933     c9.422,0.009,17.057,7.645,17.067,17.067v76.8h-17.067v-51.2C375.451,301.601,363.999,290.149,349.867,290.133z M358.4,315.733     v51.2H153.6v-51.2c0.006-4.71,3.823-8.527,8.533-8.533h187.733C354.577,307.206,358.394,311.023,358.4,315.733z M290.133,238.933     c4.713,0,8.533,3.82,8.533,8.533s-3.82,8.533-8.533,8.533h-68.267c-4.713,0-8.533-3.82-8.533-8.533s3.82-8.533,8.533-8.533     s8.533-3.82,8.533-8.533s-3.82-8.533-8.533-8.533s-8.533-3.821-8.533-8.533c0-4.713,3.82-8.533,8.533-8.533h68.267     c4.713,0,8.533,3.821,8.533,8.533c0,4.713-3.82,8.533-8.533,8.533s-8.533,3.82-8.533,8.533S285.421,238.933,290.133,238.933z      M170.667,187.733v-17.067h170.667v17.067H170.667z M170.667,153.6v-8.533c0.006-4.71,3.823-8.527,8.533-8.533h153.6     c4.71,0.006,8.527,3.823,8.533,8.533v8.533H170.667z M17.067,59.733c0.009-9.422,7.645-17.057,17.067-17.067H102.4v17.837     C77.772,64.64,59.733,85.96,59.733,110.933s18.038,46.293,42.667,50.429v9.304c0.022,18.842,15.291,34.112,34.133,34.133h61.306     c-3.296,8.807-1.326,18.721,5.086,25.6c-6.413,6.879-8.382,16.793-5.085,25.6h-61.306c-18.842,0.022-34.112,15.291-34.133,34.133     v0.771c-24.606,4.175-42.624,25.472-42.667,50.429v25.6H17.067V59.733z M102.4,78.012v65.843     c-15.059-3.827-25.601-17.384-25.601-32.922S87.341,81.839,102.4,78.012z M102.4,308.412v58.522H76.8v-25.6     C76.847,325.812,87.369,312.281,102.4,308.412z M315.733,477.867c10.845,0.012,20.51,6.846,24.137,17.067H172.129     c3.627-10.221,13.292-17.054,24.137-17.067H315.733z M221.867,460.8v-25.6h68.267v25.6H221.867z M494.933,401.067     c-0.011,9.421-7.645,17.056-17.067,17.067H34.133c-9.422-0.009-17.057-7.645-17.067-17.067V384h477.867V401.067z M409.6,366.933     v-58.522c15.032,3.868,25.554,17.4,25.6,32.922v25.6H409.6z M494.933,366.933h-42.667v-25.6     c-0.042-24.958-18.061-46.254-42.667-50.429v-0.771c-0.022-18.842-15.291-34.112-34.133-34.133h-61.306     c3.296-8.807,1.326-18.721-5.086-25.6c6.412-6.879,8.382-16.793,5.086-25.6h61.306c18.842-0.021,34.112-15.291,34.133-34.133     v-9.304c24.628-4.136,42.667-25.456,42.667-50.429S434.228,64.64,409.6,60.504V42.667h68.267     c9.421,0.011,17.056,7.645,17.067,17.067V366.933z" fill="#FFFFFF"/>
		</g>
	</g>
</g>
<g>
</g>
<g>
</g>
<g>
</g>
<g>
</g>
<g>
</g>
<g>
</g>
<g>
</g>
<g>
</g>
<g>
</g>
<g>
</g>
<g>
</g>
<g>
</g>
<g>
</g>
<g>
</g>
<g>
</g>
</svg>
