<?xml version="1.0" encoding="iso-8859-1"?>
<!-- Generator: Adobe Illustrator 19.0.0, SVG Export Plug-In . SVG Version: 6.00 Build 0)  -->
<svg xmlns="http://www.w3.org/2000/svg" xmlns:xlink="http://www.w3.org/1999/xlink" version="1.1" id="Capa_1" x="0px" y="0px" viewBox="0 0 512 512" style="enable-background:new 0 0 512 512;" xml:space="preserve" width="512px" height="512px">
<g>
	<g>
		<g>
			<path d="M494.933,0H17.067C7.645,0.011,0.011,7.645,0,17.067v477.867c0.011,9.421,7.645,17.056,17.067,17.067h477.867     c9.421-0.011,17.056-7.645,17.067-17.067V17.067C511.989,7.645,504.355,0.011,494.933,0z M17.067,494.933V17.067h477.867     l0.009,477.867H17.067z" fill="#FFFFFF"/>
			<path d="M460.8,128c4.713,0,8.533-3.82,8.533-8.533s-3.82-8.533-8.533-8.533h-25.6V93.867     c-0.011-9.421-7.645-17.056-17.067-17.067h-17.067V51.2c0-4.713-3.821-8.533-8.533-8.533c-4.713,0-8.533,3.82-8.533,8.533v25.6     h-17.067V51.2c0-4.713-3.82-8.533-8.533-8.533s-8.533,3.82-8.533,8.533v25.6H332.8V51.2c0-4.713-3.82-8.533-8.533-8.533     s-8.533,3.82-8.533,8.533v25.6h-17.067V51.2c0-4.713-3.82-8.533-8.533-8.533s-8.533,3.82-8.533,8.533v25.6h-17.067V51.2     c0-4.713-3.82-8.533-8.533-8.533s-8.533,3.82-8.533,8.533v25.6H230.4V51.2c0-4.713-3.82-8.533-8.533-8.533     s-8.533,3.82-8.533,8.533v25.6h-17.067V51.2c0-4.713-3.82-8.533-8.533-8.533s-8.533,3.82-8.533,8.533v25.6h-17.067V51.2     c0-4.713-3.821-8.533-8.533-8.533c-4.713,0-8.533,3.82-8.533,8.533v25.6H128V51.2c0-4.713-3.82-8.533-8.533-8.533     s-8.533,3.82-8.533,8.533v25.6H93.867c-9.421,0.011-17.056,7.646-17.067,17.067v17.067H51.2c-4.713,0-8.533,3.82-8.533,8.533     S46.487,128,51.2,128h25.6v17.067H51.2c-4.713,0-8.533,3.821-8.533,8.533c0,4.713,3.82,8.533,8.533,8.533h25.6V179.2H51.2     c-4.713,0-8.533,3.82-8.533,8.533s3.82,8.533,8.533,8.533h25.6v17.067H51.2c-4.713,0-8.533,3.82-8.533,8.533     s3.82,8.533,8.533,8.533h25.6v17.067H51.2c-4.713,0-8.533,3.82-8.533,8.533s3.82,8.533,8.533,8.533h25.6V281.6H51.2     c-4.713,0-8.533,3.82-8.533,8.533s3.82,8.533,8.533,8.533h25.6v17.067H51.2c-4.713,0-8.533,3.82-8.533,8.533     s3.82,8.533,8.533,8.533h25.6v17.067H51.2c-4.713,0-8.533,3.82-8.533,8.533s3.82,8.533,8.533,8.533h25.6V384H51.2     c-4.713,0-8.533,3.821-8.533,8.533c0,4.713,3.82,8.533,8.533,8.533h25.6v17.067c0.011,9.421,7.646,17.056,17.067,17.067h17.067     v25.6c0,4.713,3.82,8.533,8.533,8.533S128,465.513,128,460.8v-25.6h17.067v25.6c0,4.713,3.821,8.533,8.533,8.533     c4.713,0,8.533-3.82,8.533-8.533v-25.6H179.2v25.6c0,4.713,3.82,8.533,8.533,8.533s8.533-3.82,8.533-8.533v-25.6h17.067v25.6     c0,4.713,3.82,8.533,8.533,8.533s8.533-3.82,8.533-8.533v-25.6h17.067v25.6c0,4.713,3.82,8.533,8.533,8.533     s8.533-3.82,8.533-8.533v-25.6H281.6v25.6c0,4.713,3.82,8.533,8.533,8.533s8.533-3.82,8.533-8.533v-25.6h17.067v25.6     c0,4.713,3.82,8.533,8.533,8.533s8.533-3.82,8.533-8.533v-25.6h17.067v25.6c0,4.713,3.82,8.533,8.533,8.533     s8.533-3.82,8.533-8.533v-25.6H384v25.6c0,4.713,3.821,8.533,8.533,8.533c4.713,0,8.533-3.82,8.533-8.533v-25.6h17.067     c9.421-0.011,17.056-7.645,17.067-17.067v-17.067h25.6c4.713,0,8.533-3.821,8.533-8.533c0-4.713-3.82-8.533-8.533-8.533h-25.6     v-17.067h25.6c4.713,0,8.533-3.82,8.533-8.533s-3.82-8.533-8.533-8.533h-25.6V332.8h25.6c4.713,0,8.533-3.82,8.533-8.533     s-3.82-8.533-8.533-8.533h-25.6v-17.067h25.6c4.713,0,8.533-3.82,8.533-8.533s-3.82-8.533-8.533-8.533h-25.6v-17.067h25.6     c4.713,0,8.533-3.82,8.533-8.533s-3.82-8.533-8.533-8.533h-25.6V230.4h25.6c4.713,0,8.533-3.82,8.533-8.533     s-3.82-8.533-8.533-8.533h-25.6v-17.067h25.6c4.713,0,8.533-3.82,8.533-8.533s-3.82-8.533-8.533-8.533h-25.6v-17.067h25.6     c4.713,0,8.533-3.821,8.533-8.533c0-4.713-3.82-8.533-8.533-8.533h-25.6V128H460.8z M418.133,418.133l-25.595,0.001l-0.005-0.001     l-0.005,0.001l-34.117,0.001l-0.011-0.002l-0.011,0.002l-34.104,0.002l-0.018-0.004l-0.018,0.004l-34.091,0.001l-0.025-0.005     l-0.024,0.005l-34.078,0.002L256,418.133l-0.031,0.006l-34.065,0.002l-0.038-0.008l-0.037,0.008l-34.052,0.001l-0.044-0.009     l-0.044,0.009l-34.039,0.002l-0.05-0.01l-0.051,0.01l-34.026,0.001l-0.057-0.011l-0.057,0.011l-25.543,0.001V93.867h324.267     V418.133z" fill="#FFFFFF"/>
			<path d="M153.6,196.267c23.564,0,42.667-19.103,42.667-42.667c-0.028-23.553-19.114-42.639-42.667-42.667     c-23.564,0-42.667,19.102-42.667,42.667C110.933,177.164,130.036,196.267,153.6,196.267z M153.6,128     c14.138,0,25.6,11.461,25.6,25.6c-0.015,14.132-11.468,25.585-25.6,25.6c-14.139,0-25.6-11.461-25.6-25.6     C128,139.461,139.461,128,153.6,128z" fill="#FFFFFF"/>
			<path d="M153.6,162.133c2.259-0.035,4.421-0.918,6.059-2.475c0.341-0.429,0.683-0.854,1.025-1.279     c0.321-0.477,0.579-0.994,0.767-1.538c0.247-0.483,0.419-1.002,0.508-1.537c0.103-0.563,0.162-1.133,0.175-1.705     c0.02-3.467-2.059-6.601-5.261-7.931s-6.89-0.59-9.331,1.872c-0.79,0.8-1.4,1.759-1.792,2.813     c-0.481,1.013-0.715,2.125-0.683,3.246c0.03,2.26,0.914,4.424,2.475,6.059C149.168,161.231,151.338,162.117,153.6,162.133z" fill="#FFFFFF"/>
		</g>
	</g>
</g>
<g>
</g>
<g>
</g>
<g>
</g>
<g>
</g>
<g>
</g>
<g>
</g>
<g>
</g>
<g>
</g>
<g>
</g>
<g>
</g>
<g>
</g>
<g>
</g>
<g>
</g>
<g>
</g>
<g>
</g>
</svg>
