<?xml version="1.0" encoding="UTF-8" standalone="no"?>
<!-- Generator: Adobe Illustrator 19.0.0, SVG Export Plug-In . SVG Version: 6.00 Build 0)  -->

<svg
   xmlns:dc="http://purl.org/dc/elements/1.1/"
   xmlns:cc="http://creativecommons.org/ns#"
   xmlns:rdf="http://www.w3.org/1999/02/22-rdf-syntax-ns#"
   xmlns:svg="http://www.w3.org/2000/svg"
   xmlns="http://www.w3.org/2000/svg"
   xmlns:sodipodi="http://sodipodi.sourceforge.net/DTD/sodipodi-0.dtd"
   xmlns:inkscape="http://www.inkscape.org/namespaces/inkscape"
   version="1.1"
   id="Capa_1"
   x="0px"
   y="0px"
   viewBox="0 0 55 110.00001"
   xml:space="preserve"
   width="512"
   height="1024"
   sodipodi:docname="dandelion.svg"
   inkscape:version="0.92.2 2405546, 2018-03-11"><metadata
   id="metadata39"><rdf:RDF><cc:Work
       rdf:about=""><dc:format>image/svg+xml</dc:format><dc:type
         rdf:resource="http://purl.org/dc/dcmitype/StillImage" /><dc:title></dc:title></cc:Work></rdf:RDF></metadata><defs
   id="defs37"><inkscape:path-effect
     effect="powerstroke"
     id="path-effect4573"
     is_visible="true"
     offset_points="0,0.05371094"
     sort_points="true"
     interpolator_type="CubicBezierJohan"
     interpolator_beta="0.2"
     start_linecap_type="zerowidth"
     linejoin_type="extrp_arc"
     miter_limit="4"
     end_linecap_type="zerowidth" /><inkscape:path-effect
     effect="powerstroke"
     id="path-effect4569"
     is_visible="true"
     offset_points="0,0.05371094"
     sort_points="true"
     interpolator_type="CubicBezierJohan"
     interpolator_beta="0.2"
     start_linecap_type="zerowidth"
     linejoin_type="extrp_arc"
     miter_limit="4"
     end_linecap_type="zerowidth" /><inkscape:path-effect
     effect="powerstroke"
     id="path-effect4565"
     is_visible="true"
     offset_points="0,0.05371094"
     sort_points="true"
     interpolator_type="CubicBezierJohan"
     interpolator_beta="0.2"
     start_linecap_type="zerowidth"
     linejoin_type="extrp_arc"
     miter_limit="4"
     end_linecap_type="zerowidth" /><inkscape:path-effect
     effect="powerstroke"
     id="path-effect4561"
     is_visible="true"
     offset_points="0,0.05371094"
     sort_points="true"
     interpolator_type="CubicBezierJohan"
     interpolator_beta="0.2"
     start_linecap_type="zerowidth"
     linejoin_type="extrp_arc"
     miter_limit="4"
     end_linecap_type="zerowidth" /></defs><sodipodi:namedview
   pagecolor="#000000"
   bordercolor="#666666"
   borderopacity="1"
   objecttolerance="10"
   gridtolerance="10"
   guidetolerance="10"
   inkscape:pageopacity="0"
   inkscape:pageshadow="2"
   inkscape:window-width="1366"
   inkscape:window-height="703"
   id="namedview35"
   showgrid="false"
   inkscape:zoom="0.4609375"
   inkscape:cx="256"
   inkscape:cy="516.33898"
   inkscape:window-x="0"
   inkscape:window-y="0"
   inkscape:window-maximized="1"
   inkscape:current-layer="Capa_1" />
<path
   d="m 49,1.5000001e-6 c -3.309,0 -6,2.6909999999999 -6,6.0000009999999 0,1.035001 0.263,2.009002 0.726,2.860003 l -9.829,9.8290015 c -1.355,-1.055 -3.051,-1.689 -4.897,-1.689 -1.846,0 -3.542,0.634 -4.898,1.688 l -7.669,-7.669 C 16.785,10.424007 17,9.7400065 17,9.0000055 c 0,-2.206002 -1.794,-4.000004 -4,-4.000004 -2.206,0 -4,1.794002 -4,4.000004 0,2.2060015 1.794,4.0000015 4,4.0000015 0.74,0 1.424,-0.215 2.019,-0.567 l 7.669,7.669 c -1.054,1.356 -1.688,3.052 -1.688,4.898 0,1.846 0.634,3.542 1.688,4.897 l -12.664,12.665 c -1.066,-0.967 -2.475,-1.562 -4.024,-1.562 -3.309,0 -6,2.691 -6,6.000001 0,3.309 2.691,6 6,6 3.309,0 6,-2.691 6,-6 0,-1.035 -0.263,-2.009001 -0.726,-2.860001 l 12.829,-12.829 c 1.106,0.86 2.44,1.436 3.898,1.619 v 10.16 c -2.833,0.478 -5,2.942001 -5,5.910001 0,3.309 2.691,6 6,6 3.309,0 6,-2.691 6,-6 0,-2.967 -2.167,-5.431001 -5,-5.910001 v -10.16 c 1.458,-0.183 2.792,-0.759 3.898,-1.619 l 7.669,7.669 c -0.353,0.596 -0.568,1.28 -0.568,2.02 0,2.206 1.794,4.000001 4,4.000001 2.206,0 4,-1.794001 4,-4.000001 0,-2.206 -1.794,-4 -4,-4 -0.74,0 -1.424,0.215 -2.019,0.567 l -7.669,-7.669 c 1.054,-1.356 1.688,-3.052 1.688,-4.898 0,-1.846 -0.634,-3.542 -1.688,-4.897 l 9.665,-9.665 c 1.065,0.967 2.474,1.562 4.023,1.562 3.309,0 6,-2.6910015 6,-6.0000045 C 55,2.6910015 52.309,1.5000001e-6 49,1.5000001e-6 Z M 11,9.0000055 c 0,-1.103001 0.897,-2.000002 2,-2.000002 1.103,0 2,0.897001 2,2.000002 0,1.1030015 -0.897,2.0000015 -2,2.0000015 -1.103,0 -2,-0.897 -2,-2.0000015 z M 6,51.000008 c -2.206,0 -4,-1.794 -4,-4 0,-2.206001 1.794,-4.000001 4,-4.000001 2.206,0 4,1.794 4,4.000001 0,2.206 -1.794,4 -4,4 z m 27,-2 c 0,2.206 -1.794,4 -4,4 -2.206,0 -4,-1.794 -4,-4 0,-2.206 1.794,-4 4,-4 2.206,0 4,1.794 4,4 z M 29,31.000007 c -3.309,0 -6,-2.691 -6,-6 0,-3.309 2.691,-6 6,-6 3.309,0 6,2.691 6,6 0,3.309 -2.691,6 -6,6 z m 18,10 c 0,1.103 -0.897,2 -2,2 -1.103,0 -2,-0.897 -2,-2 0,-1.103 0.897,-2 2,-2 1.103,0 2,0.897 2,2 z m 2,-31 c -2.206,0 -4,-1.7940025 -4,-4.0000045 0,-2.206001 1.794,-4.000001 4,-4.000001 2.206,0 4,1.794 4,4.000001 0,2.206002 -1.794,4.0000045 -4,4.0000045 z"
   id="path2"
   inkscape:connector-curvature="0"
   style="fill:#ffffff" />
<g
   id="g4"
   transform="translate(0,55.000004)">
</g>
<g
   id="g6"
   transform="translate(0,55.000004)">
</g>
<g
   id="g8"
   transform="translate(0,55.000004)">
</g>
<g
   id="g10"
   transform="translate(0,55.000004)">
</g>
<g
   id="g12"
   transform="translate(0,55.000004)">
</g>
<g
   id="g14"
   transform="translate(0,55.000004)">
</g>
<g
   id="g16"
   transform="translate(0,55.000004)">
</g>
<g
   id="g18"
   transform="translate(0,55.000004)">
</g>
<g
   id="g20"
   transform="translate(0,55.000004)">
</g>
<g
   id="g22"
   transform="translate(0,55.000004)">
</g>
<g
   id="g24"
   transform="translate(0,55.000004)">
</g>
<g
   id="g26"
   transform="translate(0,55.000004)">
</g>
<g
   id="g28"
   transform="translate(0,55.000004)">
</g>
<g
   id="g30"
   transform="translate(0,55.000004)">
</g>
<g
   id="g32"
   transform="translate(0,55.000004)">
</g>
<circle
   style="fill:none;stroke:#ffffff;stroke-width:2.1484375;stroke-miterlimit:4;stroke-dasharray:none;stroke-opacity:1"
   id="path4553"
   cx="13.633474"
   cy="65.603821"
   r="5.4766951" /><circle
   style="fill:none;stroke:#ffffff;stroke-width:2.1484375;stroke-miterlimit:4;stroke-dasharray:none;stroke-opacity:1"
   id="path4555"
   cx="35.65678"
   cy="88.093224"
   r="4.1949153" /><circle
   style="fill:none;stroke:#ffffff;stroke-width:2.1484375;stroke-miterlimit:4;stroke-dasharray:none;stroke-opacity:1"
   id="path4557"
   cx="20.974577"
   cy="103.00848"
   r="3.9618645" /><path
   style="fill:#ffffff;fill-rule:nonzero;stroke:#ffffff;stroke-width:1.82617196;stroke-linecap:butt;stroke-linejoin:miter;stroke-opacity:1;stroke-miterlimit:4;stroke-dasharray:none"
   d="m 26.101696,52.902545 c 0,0 -0.03798,-0.03798 -0.03798,-0.03798 -1.771187,1.771186 -7.046767,7.122725 -8.817954,8.893911 1.771187,-1.771186 7.122726,-7.046766 8.893912,-8.817953 0,0 -0.03798,-0.03798 -0.03798,-0.03798 z"
   id="path4559"
   inkscape:connector-curvature="0"
   inkscape:path-effect="#path-effect4561"
   inkscape:original-d="m 26.101696,52.902545 -8.855933,8.855932" /><path
   style="fill:#000000;fill-rule:nonzero;stroke:#ffffff;stroke-width:1.82617196;stroke-linecap:butt;stroke-linejoin:miter;stroke-opacity:1;stroke-miterlimit:4;stroke-dasharray:none"
   d="m 17.245763,69.449155 c 0,0 -0.03798,0.03798 -0.03798,0.03798 3.052966,3.052967 12.249845,12.173887 15.302811,15.226853 -3.052966,-3.052966 -12.173886,-12.249845 -15.226853,-15.302811 0,0 -0.03798,0.03798 -0.03798,0.03798 z"
   id="path4567"
   inkscape:connector-curvature="0"
   inkscape:path-effect="#path-effect4569"
   inkscape:original-d="M 17.245763,69.449155 32.510595,84.713987" /><path
   style="fill:#000000;fill-rule:nonzero;stroke:#ffffff;stroke-width:1.82617196;stroke-linecap:butt;stroke-linejoin:miter;stroke-opacity:1;stroke-miterlimit:4;stroke-dasharray:none"
   d="m 32.62712,91.355937 c 0,0 -0.03798,-0.03798 -0.03798,-0.03798 -1.817797,1.817796 -7.233208,7.309165 -9.051005,9.126962 1.817797,-1.817797 7.309167,-7.233207 9.126963,-9.051004 0,0 -0.03798,-0.03798 -0.03798,-0.03798 z"
   id="path4571"
   inkscape:connector-curvature="0"
   inkscape:path-effect="#path-effect4573"
   inkscape:original-d="m 32.62712,91.355937 -9.088984,9.088983" /></svg>