<?xml version="1.0" encoding="iso-8859-1"?>
<!-- Generator: Adobe Illustrator 19.0.0, SVG Export Plug-In . SVG Version: 6.00 Build 0)  -->
<svg xmlns="http://www.w3.org/2000/svg" xmlns:xlink="http://www.w3.org/1999/xlink" version="1.1" id="Capa_1" x="0px" y="0px" viewBox="0 0 512 512" style="enable-background:new 0 0 512 512;" xml:space="preserve" width="512px" height="512px">
<g>
	<g>
		<g>
			<path d="M340.164,126.361c-15.571-49.779-61.637-83.703-113.795-83.8s-98.35,33.653-114.108,83.374     c-15.758,49.721,2.562,103.917,45.255,133.88v-0.043c0.285,0.246,0.587,0.472,0.905,0.674     c40.92,28.343,95.165,28.193,135.927-0.375h0.06C337.213,230.268,355.736,176.14,340.164,126.361z M174.865,250.675v-0.043     c0.923-0.984,1.983-1.829,3.149-2.509l27.443-13.457c5.629-2.816,9.2-8.554,9.242-14.848v-3.243     c-0.018-4.785-2.755-9.144-7.057-11.238c-10.124-5.01-17.519-14.236-20.207-25.207c-0.761-2.812-2.904-5.042-5.683-5.914     c-2.053-0.903-3.29-3.025-3.063-5.257v-7.083c-0.231-1.9,0.578-3.777,2.116-4.915c2.527-1.339,4.215-3.853,4.497-6.699     c0.588-6.408,2.138-12.691,4.599-18.637c2.325-5.154,3.709-10.683,4.087-16.324c8.867,4.434,18.803,6.286,28.672,5.342     c0.811-0.068,1.707-0.068,2.56-0.068c33.365,0.222,39.484,15.855,41.096,29.824c0.322,2.792,1.997,5.246,4.48,6.562     c1.81,0.954,2.902,2.872,2.799,4.915v7.083c0.101,2.39-1.425,4.547-3.712,5.248c-2.814,0.868-4.982,3.126-5.734,5.973     c-2.47,10.873-9.629,20.094-19.55,25.182c-4.281,2.098-7.001,6.445-7.014,11.213v3.584c0.002,6.203,3.492,11.878,9.028,14.677     l26.223,13.483c1.417,0.735,2.719,1.672,3.866,2.782C245.133,269.222,206.281,269.059,174.865,250.675z M290.987,241.331     c-2.878-3.437-6.422-6.256-10.419-8.286l-25.933-12.885v-0.853c11.893-6.738,20.768-17.758,24.815-30.814     c6.963-4.034,11.234-11.486,11.196-19.533v-7.083c0.09-6.697-2.837-13.08-7.97-17.382c-3.413-19.558-16.427-40.96-56.883-40.96     c-1.493,0-2.987,0-4.429,0.111c-7.705,0.837-15.47-0.916-22.067-4.983c-2.327-1.533-4.442-3.367-6.289-5.453     c-2.816-3.412-7.552-4.543-11.605-2.773c-3.965,1.635-6.391,5.673-5.973,9.941c0.228,2.676,0.61,5.338,1.143,7.97     c0.904,5.614,0.079,11.369-2.364,16.503c-2.669,6.343-4.502,13.007-5.453,19.823c-4.781,4.428-7.4,10.716-7.177,17.229v7.083     c-0.219,7.926,3.795,15.37,10.539,19.541c4.362,13.145,13.498,24.174,25.6,30.908l-27.571,13.525     c-3.61,1.988-6.799,4.66-9.387,7.868c-33.189-27.543-45.549-72.937-30.905-113.503c14.644-40.567,53.15-67.599,96.279-67.591     c43.286-0.036,81.914,27.162,96.472,67.927S324.503,213.939,290.987,241.331z" fill="#FFFFFF"/>
			<path d="M268.8,307.2h-93.867c-4.713,0-8.533,3.82-8.533,8.533s3.82,8.533,8.533,8.533H268.8c4.713,0,8.533-3.82,8.533-8.533     S273.513,307.2,268.8,307.2z" fill="#FFFFFF"/>
			<path d="M268.8,392.533h-93.867c-4.713,0-8.533,3.821-8.533,8.533s3.82,8.533,8.533,8.533H268.8c4.713,0,8.533-3.82,8.533-8.533     S273.513,392.533,268.8,392.533z" fill="#FFFFFF"/>
			<path d="M268.8,349.867H98.133c-4.713,0-8.533,3.82-8.533,8.533s3.82,8.533,8.533,8.533H268.8c4.713,0,8.533-3.82,8.533-8.533     S273.513,349.867,268.8,349.867z" fill="#FFFFFF"/>
			<path d="M482.133,298.667c0-4.713-3.821-8.533-8.533-8.533h-51.2V25.6c0-14.138-11.462-25.6-25.6-25.6H55.467     c-14.138,0-25.6,11.461-25.6,25.6v426.667c0,14.138,11.462,25.6,25.6,25.6h285.978c12.567,12.939,26.893,24.044,42.556,32.99     c2.64,1.524,5.893,1.524,8.533,0c78.251-45.227,88.166-116.053,89.412-134.477c0.08-0.301,0.142-0.605,0.188-0.913     c0-0.171-0.085-0.307-0.094-0.478c0.085-1.63,0.094-2.662,0.094-2.995V298.667z M55.467,460.8c-4.713,0-8.533-3.821-8.533-8.533     V25.6c0-4.713,3.82-8.533,8.533-8.533H396.8c4.713,0,8.533,3.82,8.533,8.533v264.533h-102.4c-4.713,0-8.533,3.82-8.533,8.533     v73.327c0,0.333,0,1.365,0.094,2.995c0,0.171-0.094,0.307-0.094,0.478c0.045,0.308,0.108,0.612,0.188,0.913     c2.718,30.606,13.931,59.845,32.375,84.42H55.467z M379.733,307.2v59.733h-68.267V307.2H379.733z M388.267,493.534     c-13.013-7.89-24.929-17.461-35.439-28.467c-0.533-0.919-1.24-1.725-2.082-2.372c-20.19-21.9-33.46-49.278-38.144-78.694h67.132     v68.267c0,4.713,3.82,8.533,8.533,8.533s8.533-3.821,8.533-8.533V384h67.132C456.442,430.023,428.66,470.241,388.267,493.534z      M465.067,366.933H396.8V307.2h68.267V366.933z" fill="#FFFFFF"/>
		</g>
	</g>
</g>
<g>
</g>
<g>
</g>
<g>
</g>
<g>
</g>
<g>
</g>
<g>
</g>
<g>
</g>
<g>
</g>
<g>
</g>
<g>
</g>
<g>
</g>
<g>
</g>
<g>
</g>
<g>
</g>
<g>
</g>
</svg>
